<svg xmlns="http://www.w3.org/2000/svg" xmlns:xlink="http://www.w3.org/1999/xlink" width="404" zoomAndPan="magnify" viewBox="0 0 303 302.999993" height="404" preserveAspectRatio="xMidYMid meet" version="1.0"><defs><clipPath id="3955a0f15f"><path d="M 0.480469 0.480469 L 302.519531 0.480469 L 302.519531 302.519531 L 0.480469 302.519531 Z M 0.480469 0.480469 " clip-rule="nonzero"/></clipPath><clipPath id="a79dd32bd6"><path d="M 151.5 0.480469 C 68.09375 0.480469 0.480469 68.09375 0.480469 151.5 C 0.480469 234.90625 68.09375 302.519531 151.5 302.519531 C 234.90625 302.519531 302.519531 234.90625 302.519531 151.5 C 302.519531 68.09375 234.90625 0.480469 151.5 0.480469 " clip-rule="nonzero"/></clipPath><clipPath id="47600f67b9"><path d="M 35 154 L 276 154 L 276 223 L 35 223 Z M 35 154 " clip-rule="nonzero"/></clipPath><clipPath id="880cb4727f"><path d="M 200.675781 30.546875 L 282.140625 176.617188 L 98.734375 278.902344 L 17.269531 132.835938 Z M 200.675781 30.546875 " clip-rule="nonzero"/></clipPath><clipPath id="a032a55b40"><path d="M 200.675781 30.546875 L 282.140625 176.617188 L 98.734375 278.902344 L 17.269531 132.835938 Z M 200.675781 30.546875 " clip-rule="nonzero"/></clipPath><clipPath id="1f88358b07"><path d="M 90 87 L 219 87 L 219 133 L 90 133 Z M 90 87 " clip-rule="nonzero"/></clipPath><clipPath id="e59c78e6b6"><path d="M 200.675781 30.546875 L 282.140625 176.617188 L 98.734375 278.902344 L 17.269531 132.835938 Z M 200.675781 30.546875 " clip-rule="nonzero"/></clipPath><clipPath id="d140bca6de"><path d="M 200.675781 30.546875 L 282.140625 176.617188 L 98.734375 278.902344 L 17.269531 132.835938 Z M 200.675781 30.546875 " clip-rule="nonzero"/></clipPath></defs><rect x="-30.3" width="363.6" fill="#ffffff" y="-30.299999" height="363.599992" fill-opacity="1"/><rect x="-30.3" width="363.6" fill="#ffffff" y="-30.299999" height="363.599992" fill-opacity="1"/><g clip-path="url(#3955a0f15f)"><g clip-path="url(#a79dd32bd6)"><path fill="#fbf5fe" d="M 0.480469 0.480469 L 302.519531 0.480469 L 302.519531 302.519531 L 0.480469 302.519531 Z M 0.480469 0.480469 " fill-opacity="1" fill-rule="nonzero"/></g></g><g clip-path="url(#47600f67b9)"><g clip-path="url(#880cb4727f)"><g clip-path="url(#a032a55b40)"><path fill="#6b46c2" d="M 243.800781 196.125 C 229.210938 203.722656 214.117188 209.457031 208.941406 211.269531 C 175.722656 223.078125 137.726562 226.808594 103.253906 217.5625 C 85.914062 213 69.460938 204.714844 56.3125 192.710938 C 49.734375 186.707031 43.636719 179.632812 39.089844 171.960938 C 36.234375 166.839844 30.46875 150.714844 43.109375 156.019531 C 48.359375 158.195312 53.515625 160.691406 58.46875 163.304688 C 84.324219 177.355469 112.269531 181.644531 141.101562 182.21875 C 178.257812 183.253906 213.625 174.8125 248.394531 162.40625 C 253.363281 160.707031 258.449219 159.214844 263.648438 157.925781 C 267.910156 156.890625 271.652344 158.296875 273.9375 162.394531 C 280.429688 173.546875 262.605469 186.441406 243.800781 196.125 Z M 243.800781 196.125 " fill-opacity="1" fill-rule="nonzero"/></g></g></g><g clip-path="url(#1f88358b07)"><g clip-path="url(#e59c78e6b6)"><g clip-path="url(#d140bca6de)"><path fill="#6b46c2" d="M 202.933594 118.996094 C 196.664062 122.222656 189.941406 124.628906 185.90625 126.074219 C 157.519531 135.460938 110.535156 138.027344 93.007812 108.046875 C 87.320312 98.328125 92.195312 92.117188 102.550781 93.324219 C 108.574219 93.996094 114.664062 96.238281 120.914062 97.316406 C 144.960938 101.367188 168.378906 98.511719 191.730469 91.667969 C 195.46875 90.65625 199.207031 89.648438 202.949219 88.636719 C 210.539062 86.816406 213.4375 88.15625 217.324219 95.121094 C 222.832031 105.480469 213.511719 113.363281 202.933594 118.996094 Z M 202.933594 118.996094 " fill-opacity="1" fill-rule="nonzero"/></g></g></g></svg>